<?xml version="1.0" encoding="UTF-8" standalone="no"?>
<!-- Created with Inkscape (http://www.inkscape.org/) -->

<svg
   width="100mm"
   height="100mm"
   viewBox="0 0 100 100"
   version="1.1"
   id="svg5"
   inkscape:version="1.1.2 (0a00cf5339, 2022-02-04)"
   sodipodi:docname="blue-hour-icon.svg"
   inkscape:export-filename="/home/blue-hour-icon.png"
   inkscape:export-xdpi="96"
   inkscape:export-ydpi="96"
   xmlns:inkscape="http://www.inkscape.org/namespaces/inkscape"
   xmlns:sodipodi="http://sodipodi.sourceforge.net/DTD/sodipodi-0.dtd"
   xmlns="http://www.w3.org/2000/svg"
   xmlns:svg="http://www.w3.org/2000/svg">
  <sodipodi:namedview
     id="namedview7"
     pagecolor="#ffffff"
     bordercolor="#666666"
     borderopacity="1.0"
     inkscape:pageshadow="2"
     inkscape:pageopacity="0.0"
     inkscape:pagecheckerboard="0"
     inkscape:document-units="mm"
     showgrid="false"
     inkscape:zoom="1.4142136"
     inkscape:cx="184.55487"
     inkscape:cy="142.83557"
     inkscape:window-width="1920"
     inkscape:window-height="1000"
     inkscape:window-x="0"
     inkscape:window-y="0"
     inkscape:window-maximized="1"
     inkscape:current-layer="layer3"
     width="100mm" />
  <defs
     id="defs2" />
  <g
     inkscape:label="Icon"
     id="layer1"
     style="display:inline"
     inkscape:groupmode="layer"
     sodipodi:insensitive="true">
    <g
       inkscape:groupmode="layer"
       id="layer4"
       inkscape:label="Circle"
       style="display:inline"
       sodipodi:insensitive="true">
      <circle
         style="font-size:10.5833px;line-height:1.25;display:inline;fill:#1e1e1e;fill-opacity:1;stroke-width:0.0875053"
         id="path60694"
         cx="50"
         cy="50"
         r="50"
         inkscape:label="path_circle" />
    </g>
    <g
       inkscape:groupmode="layer"
       id="layer5"
       inkscape:label="Border"
       style="display:inline">
      <circle
         style="display:inline;fill:none;fill-opacity:1;stroke:#228a96;stroke-width:4.87515;stroke-miterlimit:4;stroke-dasharray:none;stroke-opacity:1"
         id="path62860"
         cx="50"
         cy="50"
         r="47.562428"
         inkscape:label="path_circle_border" />
    </g>
    <g
       inkscape:groupmode="layer"
       id="layer3"
       inkscape:label="Text"
       style="display:inline">
      <path
         d="m 47.679673,66.845921 c 1.328769,-2.305563 2.433828,-4.305979 3.315185,-6.001246 l 16.498978,-31.73541 h 6.855629 l -5.208812,10.019029 -2.40201,4.52637 h 0.04877 c 1.389303,-0.996389 2.775189,-2.07342 4.864933,-2.776842 1.816773,-0.412608 4.216775,-0.217897 5.39408,0.347925 1.623326,0.780179 2.927149,2.670627 3.010152,3.940424 0.210687,3.223262 -0.328294,4.356569 -2.047764,7.948085 -2.095672,4.377288 -3.882345,7.755845 -6.954888,10.349604 -3.072546,2.593761 -6.097049,3.890641 -9.073511,3.890641 -1.691541,0 -2.963841,-0.415338 -3.816899,-1.246023 -0.827973,-0.847636 -1.180464,-1.891654 -1.057472,-3.536064 h -0.298949 c -0.290841,0.559441 -0.535557,1.137259 -1.136883,2.137474 -0.576247,0.98325 -1.027743,1.695265 -1.354477,2.136033 z M 61.864418,52.936257 c -1.057622,2.034315 -1.740754,3.755013 -2.04939,5.162085 -0.292379,1.407068 -0.246499,2.492045 0.137647,3.254917 0.409177,0.745912 1.126109,1.118872 2.150789,1.118872 1.561431,0 3.170447,-0.779824 4.827063,-2.339469 1.672882,-1.559646 3.320179,-3.899118 4.94187,-7.018406 1.61288,-3.102339 2.410675,-5.045753 2.393383,-6.639303 0.0079,-1.610504 -0.801662,-1.808438 -2.428056,-1.808438 -1.593949,0 -3.277524,0.81409 -5.050717,2.441547 -1.756936,1.627457 -3.397775,2.895377 -4.922523,5.828195 z"
         style="font-weight:bold;font-size:25.4px;line-height:1.25;font-family:'Liberation Mono';-inkscape-font-specification:'Liberation Mono, Bold';display:inline;fill:#228a96;fill-opacity:1;stroke-width:0.531367"
         id="path37116"
         sodipodi:nodetypes="ccccccccssssscccccccccscscsccc"
         inkscape:label="char_2" />
      <path
         d="M 32.468832,66.744648 53.074165,28.997501 h 5.722302 L 38.291531,66.744648 Z"
         style="font-weight:bold;font-size:25.4px;line-height:1.25;font-family:'Liberation Mono';-inkscape-font-specification:'Liberation Mono, Bold';display:inline;fill:#54616e;fill-opacity:1;stroke-width:0.53542"
         id="path37119"
         inkscape:label="char_2" />
      <path
         d="M 18.303379,66.744648 38.908704,28.997501 h 5.722312 L 24.126082,66.744648 Z"
         style="font-weight:bold;font-size:25.4px;line-height:1.25;font-family:'Liberation Mono';-inkscape-font-specification:'Liberation Mono, Bold';display:inline;fill:#54616e;fill-opacity:1;stroke-width:0.53542"
         id="path37122"
         inkscape:label="char_1" />
    </g>
    <path
       d="M 68.438104,-3.0459141 78.620428,-21.699038 h 2.827735 L 71.315448,-3.0459141 Z"
       style="font-weight:bold;font-size:25.4px;line-height:1.25;font-family:'Liberation Mono';-inkscape-font-specification:'Liberation Mono, Bold';display:inline;stroke-width:0.264583"
       id="path37122-0"
       inkscape:label="orig_char_1" />
    <path
       d="m 78.359625,-3.411002 10.182324,-18.653124 h 2.827734 L 81.236968,-3.411002 Z"
       style="font-weight:bold;font-size:25.4px;line-height:1.25;font-family:'Liberation Mono';-inkscape-font-specification:'Liberation Mono, Bold';display:inline;stroke-width:0.264583"
       id="path37119-6"
       inkscape:label="orig_char_2" />
    <path
       d="m 91.270463,-3.6590481 q 0.09922,-1.686719 0.09922,-2.926954 V -22.064126 h 3.485059 v 4.886523 l -0.0248,2.207617 h 0.0248 q 0.508496,-1.128613 1.525488,-1.74873 1.029395,-0.620117 2.406055,-0.620117 2.306835,0 3.547075,1.823144 1.24023,1.823145 1.24023,5.159375 0,3.1501949 -1.31465,5.0477539 -1.31465,1.897558 -3.584276,1.897558 -1.289844,0 -2.269629,-0.607714 -0.967383,-0.620118 -1.525489,-1.823145 h -0.04961 q 0,0.409277 -0.06201,1.141016 -0.04961,0.719336 -0.124023,1.041797 z m 3.534668,-6.7840819 q 0,1.4882809 0.322461,2.5176749 0.334864,1.029395 0.930176,1.5875 0.607715,0.545703 1.389063,0.545703 1.190625,0 1.835546,-1.141015 0.65732,-1.141016 0.65732,-3.4230469 0,-2.269629 -0.64492,-3.435449 -0.632517,-1.178223 -1.872751,-1.178223 -1.21543,0 -1.922363,1.190625 -0.694532,1.190625 -0.694532,3.336231 z"
       style="font-weight:bold;font-size:25.4px;line-height:1.25;font-family:'Liberation Mono';-inkscape-font-specification:'Liberation Mono, Bold';display:inline;stroke-width:0.264583"
       id="path37116-1"
       inkscape:label="orig_char_3" />
  </g>
</svg>
